<svg xmlns="http://www.w3.org/2000/svg" xmlns:xlink="http://www.w3.org/1999/xlink" id="Layer_1" x="0px" y="0px" viewBox="0 0 1742.25 765.6" xml:space="preserve"><g>	<g>		<path fill="#1E9BD7" d="M808.73,0v765.6h837.1V0H808.73z M1630.93,750.7H823.62V14.89h807.31V750.7z"></path>		<path fill="#1E9BD7" d="M266.55,542.17v-37.88c-32.77,28.48-66.75,42.72-107.97,42.72c-43.82,0-81.52-16.03-112.39-48.09   C15.52,467.06,0,428.91,0,384.5c0-44.81,15.84-83.15,47.71-115.01c32.06-32.06,70.46-48.1,115.27-48.1s83.12,16.04,115.19,48.1   c32.06,32.07,47.97,70.41,47.97,115.01v157.68L266.55,542.17L266.55,542.17z M265.1,384.5c0-27.68-10.06-51.58-30.17-71.7   c-20.12-20.11-44.12-30.17-72-30.17c-27.89,0-51.88,10.06-71.99,30.17c-19.92,19.92-29.87,43.82-29.87,71.7   c0,28.08,9.95,52.08,29.87,71.99c19.91,19.92,43.91,29.87,71.99,29.87s52.08-9.95,72-29.87   C255.04,436.38,265.1,412.38,265.1,384.5z"></path>		<path fill="#1E9BD7" d="M547.41,542.17h-80.66L352.63,226.4h64.23l90.22,247.35L597.3,226.4h64.82L547.41,542.17z"></path>		<path fill="#1E9BD7" d="M701.49,542.17V226.4h59.58v315.77L701.49,542.17L701.49,542.17z"></path>		<g>			<path fill="#1E9BD7" d="M1502.83,545.15V360.93c0-20.99-7.76-39.16-23.09-54.5c-15.34-15.34-33.55-23.01-54.54-23.01    c-21,0-39.04,7.67-54.38,23.01c-15.34,15.34-22.89,33.51-22.89,54.5v184.23h-62.56V360.93c0-36.94,14.13-69.44,42.19-97.5    c28.06-28.05,60.61-42.09,97.55-42.09c36.74,0,69.48,14.03,97.55,42.09c28.26,28.26,42.74,60.76,42.74,97.5v184.23h-62.57V545.15    z"></path>			<g>				<path fill="#1E9BD7" d="M1078.73,546.6c44.6,0,83.4-15.98,115.32-47.51c31.91-31.91,48.1-70.6,48.1-115     c0-44.39-16.19-83.08-48.11-115.01c-31.92-31.92-70.72-48.1-115.31-48.1c-44.6,0-83.39,16.92-115.31,48.84     c-17.09,17.09-29.74,37.02-37.63,57.87h64.84c3.91-5.96,8.47-11.98,13.58-17.09c20.72-20.72,45.8-31.59,74.53-31.59     s53.81,10.32,74.53,31.04c20.72,20.73,31.23,45.61,31.23,74.14c0,28.74-10.51,53.77-31.23,74.48     c-20.52,20.52-45.6,30.9-74.53,30.9c-28.94,0-54.02-9.73-74.53-30.26c-5.04-5.04-9.55-12.47-13.41-15.45H926     c7.91,17.87,20.49,38.98,37.42,55.91C995.13,531.3,1033.93,546.6,1078.73,546.6z"></path>				<path fill="#1E9BD7" d="M973.36,384.29c0-8.93,1.12-17.87,3.21-26.81h-117.2v53.62h117.2     C974.48,402.16,973.36,393.22,973.36,384.29z"></path>			</g>		</g>	</g>	<g>		<path fill="#1E9BD7" d="M1717.56,233.44c13.89,0,24.69,10.8,24.69,24.54c0,14.04-10.8,24.84-24.84,24.84   c-14.04,0-25.16-10.8-25.16-24.84c0-13.74,11.11-24.54,25.16-24.54H1717.56z M1717.25,237.76c-11.11,0-19.59,9.11-19.59,20.21   c0,11.42,8.49,20.37,19.9,20.37c10.95,0.16,19.29-8.95,19.29-20.21c0-11.26-8.33-20.37-19.44-20.37H1717.25z M1712.93,271.55   h-4.78v-25.77c2.63-0.46,5.4-0.77,8.95-0.77c4.32,0,6.48,0.77,8.02,2c1.54,1.08,2.63,3.09,2.63,5.56c0,3.09-2.32,5.09-4.94,6.02   v0.31c2.16,0.93,3.39,2.93,4.17,6.33c0.77,3.86,1.39,5.4,2,6.33h-4.93c-0.77-0.93-1.39-3.24-2.16-6.64   c-0.61-2.93-2.32-4.16-5.86-4.16h-3.09v10.79H1712.93z M1712.93,257.05h3.24c3.39,0,6.63-1.08,6.63-4.01   c0-2.47-1.69-4.32-6.17-4.32c-1.85,0-2.93,0.16-3.7,0.31V257.05z"></path>	</g></g></svg>